<?xml version="1.0" encoding="UTF-8" standalone="no"?><!DOCTYPE svg PUBLIC "-//W3C//DTD SVG 1.1//EN" "http://www.w3.org/Graphics/SVG/1.1/DTD/svg11.dtd"><svg width="100%" height="100%" viewBox="0 0 150 150" version="1.1" xmlns="http://www.w3.org/2000/svg" xmlns:xlink="http://www.w3.org/1999/xlink" xml:space="preserve" style="fill-rule:evenodd;clip-rule:evenodd;stroke-linejoin:round;stroke-miterlimit:1.41421;"><g><circle cx="75" cy="75" r="75" style="fill:#6a8025;"/><path d="M96.587,100.837l-42.583,0l0,-6.181c0.818,-0.939 1.954,-1.992 3.408,-3.159c1.454,-1.166 3.181,-2.431 5.181,-3.794c1.212,-0.818 2.666,-1.712 4.363,-2.682c1.697,-0.969 3.621,-2.03 5.772,-3.181c2.393,-1.273 4.234,-2.394 5.521,-3.363c1.288,-0.97 2.462,-2.166 3.523,-3.59c0.696,-0.94 1.257,-2.114 1.681,-3.523c0.424,-1.408 0.636,-3.416 0.636,-6.021c0,-3.788 -1.015,-6.567 -3.045,-8.34c-2.03,-1.772 -4.635,-2.658 -7.816,-2.658c-1.97,0 -3.833,0.386 -5.59,1.158c-1.758,0.773 -3.076,1.841 -3.954,3.204c0.212,0.97 0.477,2.121 0.795,3.454c0.318,1.334 0.477,2.636 0.477,3.909c0,1.151 -0.477,2.174 -1.431,3.068c-0.955,0.893 -2.371,1.34 -4.25,1.34c-1.515,0 -2.681,-0.522 -3.499,-1.568c-0.818,-1.045 -1.227,-2.446 -1.227,-4.204c0,-1.636 0.454,-3.279 1.363,-4.931c0.909,-1.651 2.212,-3.173 3.909,-4.567c1.666,-1.363 3.726,-2.469 6.181,-3.318c2.454,-0.848 5.105,-1.272 7.953,-1.272c6.211,0 11.142,1.386 14.793,4.158c3.651,2.773 5.476,6.476 5.476,11.112c0,2.212 -0.326,4.227 -0.977,6.045c-0.651,1.817 -1.704,3.423 -3.159,4.817c-1.605,1.545 -3.484,2.871 -5.635,3.976c-2.151,1.106 -5.439,2.644 -9.862,4.613c-2.636,1.182 -5.09,2.417 -7.362,3.704c-2.273,1.288 -4.136,2.538 -5.59,3.75l34.948,0l0,8.044Z" style="fill:#fff;fill-rule:nonzero;"/></g></svg>