<?xml version="1.0" encoding="UTF-8" standalone="no"?><!DOCTYPE svg PUBLIC "-//W3C//DTD SVG 1.1//EN" "http://www.w3.org/Graphics/SVG/1.1/DTD/svg11.dtd"><svg width="100%" height="100%" viewBox="0 0 150 150" version="1.1" xmlns="http://www.w3.org/2000/svg" xmlns:xlink="http://www.w3.org/1999/xlink" xml:space="preserve" style="fill-rule:evenodd;clip-rule:evenodd;stroke-linejoin:round;stroke-miterlimit:1.41421;"><g><circle cx="75" cy="75" r="75" style="fill:#6a8025;"/><path d="M89.77,101.973l-30.631,0l0,-3.227c0.909,-0.06 2.325,-0.189 4.249,-0.386c1.924,-0.197 3.249,-0.401 3.977,-0.613c0.939,-0.303 1.658,-0.796 2.158,-1.478c0.5,-0.681 0.75,-1.704 0.75,-3.067l0,-31.904l-11.316,0l0,-3.817l2.499,0c3.273,0 6.204,-0.606 8.794,-1.818c2.591,-1.212 4.447,-2.515 5.568,-3.909l3.772,0c-0.091,1.97 -0.182,4.272 -0.273,6.908c-0.091,2.636 -0.136,4.999 -0.136,7.09l0,26.95c0,1.06 0.235,2.007 0.704,2.84c0.47,0.834 1.144,1.447 2.023,1.841c0.787,0.333 2.075,0.636 3.863,0.909c1.787,0.273 3.12,0.424 3.999,0.454l0,3.227Z" style="fill:#fff;fill-rule:nonzero;"/></g></svg>