<?xml version="1.0" encoding="UTF-8" standalone="no"?><!DOCTYPE svg PUBLIC "-//W3C//DTD SVG 1.1//EN" "http://www.w3.org/Graphics/SVG/1.1/DTD/svg11.dtd"><svg width="100%" height="100%" viewBox="0 0 150 150" version="1.1" xmlns="http://www.w3.org/2000/svg" xmlns:xlink="http://www.w3.org/1999/xlink" xml:space="preserve" style="fill-rule:evenodd;clip-rule:evenodd;stroke-linejoin:round;stroke-miterlimit:1.41421;"><g><circle cx="75" cy="75" r="75" style="fill:#6a8025;"/><path d="M71.455,108.561c-2.848,0 -5.453,-0.356 -7.817,-1.068c-2.363,-0.712 -4.393,-1.674 -6.09,-2.886c-1.696,-1.212 -3.007,-2.605 -3.931,-4.181c-0.924,-1.575 -1.386,-3.196 -1.386,-4.863c0,-1.484 0.364,-2.825 1.091,-4.022c0.727,-1.196 1.893,-1.795 3.499,-1.795c1.818,0 3.204,0.447 4.159,1.341c0.954,0.894 1.431,1.916 1.431,3.068c0,0.969 -0.159,2.196 -0.477,3.681c-0.318,1.484 -0.568,2.545 -0.75,3.181c0.212,0.273 0.599,0.636 1.159,1.091c0.561,0.454 1.25,0.863 2.068,1.227c0.969,0.454 1.984,0.818 3.045,1.091c1.06,0.272 2.56,0.409 4.499,0.409c1.818,0 3.568,-0.303 5.249,-0.909c1.682,-0.606 3.159,-1.576 4.431,-2.909c1.333,-1.394 2.371,-3.022 3.113,-4.886c0.743,-1.863 1.114,-4.309 1.114,-7.339c0,-1.636 -0.174,-3.257 -0.523,-4.863c-0.348,-1.606 -0.992,-3 -1.931,-4.181c-0.94,-1.182 -2.22,-2.098 -3.841,-2.75c-1.621,-0.651 -3.673,-0.977 -6.158,-0.977l-5.953,0l0,-5.226l3.954,0c4.181,0 7.195,-1.152 9.044,-3.454c1.848,-2.303 2.772,-5.772 2.772,-10.407c0,-3.788 -0.894,-6.643 -2.681,-8.567c-1.788,-1.924 -4.318,-2.886 -7.59,-2.886c-1.576,0 -2.871,0.189 -3.886,0.568c-1.015,0.379 -1.84,0.75 -2.477,1.113c-0.757,0.425 -1.378,0.894 -1.863,1.409c-0.485,0.515 -0.848,0.894 -1.091,1.136c0.212,0.97 0.47,2.159 0.773,3.568c0.303,1.409 0.454,2.75 0.454,4.022c0,1.121 -0.477,2.129 -1.431,3.022c-0.955,0.894 -2.356,1.341 -4.204,1.341c-1.606,0 -2.78,-0.576 -3.522,-1.727c-0.743,-1.151 -1.114,-2.484 -1.114,-3.999c0,-1.576 0.44,-3.182 1.318,-4.818c0.879,-1.636 2.182,-3.166 3.909,-4.59c1.727,-1.424 3.832,-2.575 6.317,-3.454c2.484,-0.878 5.347,-1.318 8.589,-1.318c3.727,0 6.81,0.553 9.249,1.659c2.439,1.106 4.355,2.447 5.749,4.022c1.363,1.545 2.302,3.166 2.817,4.863c0.516,1.697 0.773,3.151 0.773,4.363c0,1.515 -0.212,3.037 -0.636,4.567c-0.424,1.53 -1.121,2.947 -2.091,4.25c-1.06,1.424 -2.461,2.719 -4.204,3.885c-1.742,1.167 -3.931,2.114 -6.567,2.841l0,0.727c1.697,0.151 3.507,0.53 5.431,1.136c1.924,0.606 3.659,1.5 5.204,2.681c1.606,1.243 2.924,2.841 3.954,4.795c1.03,1.954 1.545,4.431 1.545,7.431c0,5.817 -2.333,10.536 -6.999,14.156c-4.666,3.621 -10.498,5.431 -17.497,5.431Z" style="fill:#fff;fill-rule:nonzero;"/></g></svg>