<svg xmlns="http://www.w3.org/2000/svg" width="273" height="130" viewBox="0 0 273 130"><g><g><g transform="rotate(-180 136.5 65)"><path fill="#2b2e6b" d="M272.125 130V14.2L15.243.022C6.36-.469-.85 7.215.081 16.185L11.845 130z"/></g><g><g><path fill="#fff" d="M186.095 41.79h2.976c.218 0 .436.215.436.428v20.735a.44.44 0 0 1-.436.43h-2.976a.44.44 0 0 1-.435-.43V42.218c0-.213.218-.428.435-.428"/></g><g><path fill="#fff" d="M194.284 41.79h13.71c.245 0 .463.215.463.428v2.507c0 .245-.218.429-.463.429h-10.02a.31.31 0 0 0-.31.306v5.352c0 .153.124.276.31.276h7.166c.247 0 .465.213.465.459v2.202c0 .243-.218.425-.465.425h-7.167c-.185 0-.31.156-.31.338v5.202c0 .182.125.305.283.305h10.048c.245 0 .463.212.463.425v2.509c0 .247-.218.43-.463.43h-13.742a.437.437 0 0 1-.432-.43V42.218c0-.213.213-.428.464-.428"/></g><g><path fill="#fff" d="M212.364 41.79h15.54c.217 0 .432.215.432.428v2.507a.439.439 0 0 1-.432.429h-5.552c-.156 0-.31.154-.31.336v17.463c0 .247-.218.43-.466.43h-2.916a.42.42 0 0 1-.434-.43V45.49c0-.182-.186-.336-.342-.336h-5.52c-.278 0-.464-.184-.464-.429v-2.507c0-.213.186-.428.464-.428"/></g><g><path fill="#fff" d="M144.039 40.844h-1.38c-.581 0-1.163-.678-.793-1.36L145.205 34c.16-.261.476-.42.796-.42h6.2c.53 0 .901.367.901.89v35.113c0 .47-.426.89-.902.89h-6.676c-.477 0-.902-.42-.902-.89V41.472c0-.367-.267-.628-.583-.628"/></g><g><path fill="#fff" d="M109.19 40.844h-1.38c-.583 0-1.164-.678-.793-1.36L110.354 34c.16-.261.476-.42.798-.42h6.198c.532 0 .901.367.901.89v35.113c0 .47-.424.89-.901.89h-6.676c-.477 0-.901-.42-.901-.89V41.472c0-.367-.267-.628-.583-.628"/></g><g><path fill="#fff" d="M130.979 39.58c-2.937 0-5.329 2.356-5.329 5.253 0 1.187.413 2.342 1.163 3.27-.144.993-1.018 1.971-1.028 1.981a.316.316 0 0 0-.04.372c.057.104.17.17.288.17a.235.235 0 0 0 .05-.007c.077-.01 1.767-.29 2.791-.969.672.288 1.38.437 2.105.437 2.938 0 5.33-2.357 5.33-5.254 0-2.897-2.392-5.253-5.33-5.253"/></g><g><path fill="#fff" d="M135.144 63.483a5.212 5.212 0 0 0 1.162-3.27c0-2.897-2.39-5.253-5.329-5.253-2.936 0-5.327 2.356-5.327 5.253 0 2.897 2.39 5.254 5.327 5.254.727 0 1.434-.144 2.106-.435 1.024.678 2.714.956 2.79.968a.224.224 0 0 0 .051.007.328.328 0 0 0 .248-.543c-.011-.01-.886-.984-1.028-1.981"/></g><g><path fill="#fff" d="M40.544 41.79h15.54c.219 0 .435.215.435.428v2.507a.44.44 0 0 1-.435.429h-5.552c-.156 0-.312.154-.312.336v17.463c0 .247-.216.43-.464.43H46.84a.42.42 0 0 1-.433-.43V45.49c0-.182-.185-.336-.342-.336h-5.52c-.278 0-.464-.184-.464-.429v-2.507c0-.213.186-.428.464-.428"/></g><g><path fill="#fff" d="M60.644 41.79h2.915c.25 0 .464.215.464.428v8.594c0 .153.125.274.31.274h9.523c.155 0 .31-.12.31-.274v-8.594c0-.213.188-.428.466-.428h2.915c.217 0 .435.215.435.428v20.735a.44.44 0 0 1-.435.43h-2.915c-.278 0-.465-.183-.465-.43v-8.44c0-.183-.156-.339-.311-.339h-9.523c-.185 0-.31.156-.31.338v8.44c0 .248-.214.43-.433.43h-2.946c-.25 0-.464-.182-.464-.43V42.219c0-.213.213-.428.464-.428"/></g><g><path fill="#fff" d="M83.415 41.79h13.71c.245 0 .462.215.462.428v2.507c0 .245-.217.429-.463.429h-10.02a.31.31 0 0 0-.31.306v5.352c0 .153.126.274.31.274h7.166c.249 0 .466.215.466.46v2.203c0 .243-.217.425-.466.425h-7.167c-.183 0-.31.156-.31.338v5.202c0 .182.127.305.283.305h10.048c.246 0 .463.212.463.425v2.509c0 .247-.217.43-.463.43h-13.74a.438.438 0 0 1-.434-.43V42.218c0-.213.215-.428.465-.428"/></g><g><path fill="#dc6099" d="M41.513 83.433H40.14v-.843h2.408v3.729c0 .361-.045.63-.045.63h.032s.67-1.532 2.622-1.532c2.058 0 3.339 1.623 3.339 3.969 0 2.39-1.45 3.954-3.461 3.954-1.845 0-2.532-1.549-2.532-1.549h-.028s.045.27.045.631v.736h-1.007zm5.932 5.953c0-1.85-1.007-3.037-2.442-3.037-1.281 0-2.486.903-2.486 3.052 0 1.517.808 3.021 2.44 3.021 1.359 0 2.488-1.111 2.488-3.036z"/></g><g><path fill="#dc6099" d="M50.79 95.417c.685 0 1.172-.542 1.463-1.203l.426-1.007-2.743-6.765H48.93V85.6h3.216v.842h-1.113l2.012 5.156c.093.286.122.542.122.542h.046s.047-.256.153-.542l2.013-5.156h-1.114V85.6h3.171v.842H56.43l-3.263 8.118c-.441 1.083-1.28 1.759-2.349 1.759-.867 0-1.447-.452-1.447-.452l.396-.811s.442.361 1.023.361"/></g><g><path fill="#dc6099" d="M66.389 82.3c1.312 0 4.224.452 4.224 2.135v1.443H68.8v-.826c0-.797-1.434-1.069-2.318-1.069-2.088 0-3.613 1.444-3.613 3.7 0 2.403 1.585 3.967 3.72 3.967.655 0 2.348-.209 2.348-1.052v-.826h1.814v1.458c0 1.593-2.79 2.105-4.284 2.105-3.28 0-5.656-2.45-5.656-5.563 0-3.157 2.439-5.472 5.579-5.472"/></g><g><path fill="#dc6099" d="M76.175 88.422h.488v-.256c0-.977-.624-1.322-1.434-1.322-1.157 0-2.195.736-2.195.736l-.715-1.323s1.204-.947 3.079-.947c2.088 0 3.202 1.067 3.202 3.021v3.067c0 .226.121.331.335.331h.702v1.428h-1.83c-.717 0-.992-.375-.992-.812v-.09c0-.241.047-.39.047-.39h-.03s-.657 1.474-2.455 1.474c-1.328 0-2.577-.768-2.577-2.33zm-1.296 3.488c1.054 0 1.803-1.113 1.803-2.076v-.255h-.32c-.766 0-2.613.12-2.613 1.277z"/></g><g><path fill="#dc6099" d="M80.467 91.73h1.129v-4.496c0-.21-.124-.316-.336-.316h-.87v-1.429h2.03c.685 0 1.02.316 1.02.857v.346c0 .166-.031.333-.031.333h.031c.397-.784 1.373-1.715 2.652-1.715 1.083 0 1.861.495 2.166 1.668h.03c.427-.902 1.465-1.668 2.699-1.668 1.571 0 2.502.902 2.502 2.916v3.503h1.127v1.428h-3.064v-4.57c0-.873-.168-1.534-1.069-1.534-1.324 0-1.981 1.309-1.981 2.72v1.956h1.128v1.428h-3.048v-4.57c0-.826-.138-1.534-1.054-1.534-1.37 0-1.996 1.429-1.996 2.812v1.864h1.114v1.428h-4.18z"/></g><g><path fill="#dc6099" d="M95.73 83.909h-1.19V82.48h3.125v3.323c0 .376-.031.647-.031.647h.031s.702-1.143 2.332-1.143c2.105 0 3.462 1.638 3.462 4.014 0 2.434-1.525 4.015-3.584 4.015-1.69 0-2.316-1.22-2.316-1.22h-.032s.032.271.032.572v.466h-1.83zm5.777 5.442c0-1.459-.793-2.406-1.937-2.406-1.005 0-1.95.721-1.95 2.42 0 1.189.624 2.361 1.92 2.361 1.068 0 1.967-.856 1.967-2.375z"/></g><g><path fill="#dc6099" d="M104.307 91.735h1.127v-4.48c0-.21-.122-.331-.335-.331h-.869v-1.429h2.028c.687 0 1.037.286 1.037.934v.45c0 .286-.031.482-.031.482h.031c.35-1.098 1.281-1.971 2.47-1.971.182 0 .35.031.35.031v1.88s-.196-.03-.473-.03c-1.57 0-2.271 1.353-2.271 2.795v1.67h1.113v1.427h-4.177z"/></g><g><path fill="#dc6099" d="M110.957 91.727h1.127v-4.804h-1.204v-1.427h3.14v6.23h1.114v1.426h-4.177zm1.112-9.237h1.952v1.7h-1.952z"/></g><g><path fill="#dc6099" d="M119.264 85.307c1.66 0 2.24 1.083 2.24 1.083h.031s-.031-.225-.031-.542v-1.94h-1.206V82.48h3.127v8.915c0 .226.12.331.335.331h.701v1.428h-1.828c-.702 0-.992-.375-.992-.812v-.089c0-.212.046-.346.046-.346h-.03s-.61 1.429-2.546 1.429c-2.074 0-3.401-1.64-3.401-4.015zm.319 6.42c1.022 0 1.966-.722 1.966-2.361 0-1.248-.625-2.42-1.905-2.42-1.099 0-1.981.857-1.981 2.375z"/></g><g><path fill="#dc6099" d="M128.53 94.752c1.19 0 2.196-.512 2.196-1.925v-.48c0-.181.03-.407.03-.407h-.03c-.456.677-1.128 1.067-2.164 1.067-2.241 0-3.492-1.773-3.492-3.88 0-2.102 1.204-3.817 3.446-3.817.929 0 1.983.346 2.408 1.158h.032s-.032-.106-.032-.256c0-.405.275-.721.885-.721h1.937v1.428h-.747c-.2 0-.336.106-.336.301v5.473c0 2.631-2.074 3.622-4.1 3.622-.976 0-2.015-.27-2.777-.661l.595-1.414zm2.242-5.604c0-1.745-.884-2.212-1.921-2.212-1.174 0-1.83.842-1.83 2.136 0 1.339.701 2.332 1.953 2.332z"/></g><g><path fill="#dc6099" d="M141.74 88.949c0 .225-.045.646-.045.646h-5.382c.122 1.413 1.159 2.136 2.332 2.136 1.265 0 2.258-.813 2.258-.813l.747 1.353s-1.19 1.069-3.14 1.069c-2.579 0-4.18-1.835-4.18-4.015 0-2.36 1.617-4.015 3.95-4.015 2.24 0 3.46 1.61 3.46 3.639zm-2.007-.47c-.03-1.06-.684-1.695-1.506-1.695-.986 0-1.686.681-1.869 1.694z"/></g><g><path fill="#dc6099" d="M144.99 82.59h3.46v.872h-1.28l1.921 7.77c.077.333.107.693.107.693h.061s.046-.36.137-.692l2.455-8.643h.99l2.471 8.643c.092.332.138.692.138.692h.06s.03-.36.107-.692l1.921-7.771h-1.282v-.872h3.462v.872h-1.097l-2.485 9.696h-1.266l-2.363-8.314c-.092-.315-.122-.69-.122-.69h-.062s-.03.375-.121.69l-2.38 8.314h-1.25l-2.5-9.696h-1.082z"/></g><g><path fill="#dc6099" d="M166.668 88.908c0 .18-.045.482-.045.482h-5.886c.046 1.939 1.388 3.036 2.974 3.036 1.401 0 2.333-.903 2.333-.903l.472.768s-1.097 1.052-2.837 1.052c-2.285 0-4.009-1.623-4.009-3.953 0-2.483 1.708-3.97 3.781-3.97 2.12 0 3.217 1.608 3.217 3.488zm-1.072-.27c-.062-1.594-1.04-2.361-2.17-2.361-1.283 0-2.4.828-2.643 2.36z"/></g><g><path fill="#dc6099" d="M167.735 92.315h1.296v-5.877h-1.371v-.842h2.408v6.72h1.298v.841h-3.63zm1.233-9.725h1.18v1.278h-1.18z"/></g><g><path fill="#dc6099" d="M175.196 95.418c1.494 0 2.683-.693 2.683-2.39v-.752c0-.286.045-.542.045-.542h-.03c-.457.841-1.25 1.383-2.438 1.383-2.06 0-3.416-1.609-3.416-3.88 0-2.268 1.264-3.817 3.323-3.817 1.082 0 2.164.405 2.576 1.338h.032s-.032-.106-.032-.33c0-.556.229-.827.886-.827h1.372v.841h-.947c-.212 0-.335.104-.335.316v6.223c0 2.405-1.798 3.338-3.688 3.338-.87 0-1.754-.225-2.5-.602l.395-.826zm2.688-6.18c0-2.209-1.065-2.901-2.418-2.901-1.491 0-2.359 1.082-2.359 2.886 0 1.818.989 2.976 2.495 2.976z"/></g><g><path fill="#dc6099" d="M180.437 92.315h1.296v-8.883h-1.373v-.842h2.41v4.149c0 .346-.062.616-.062.616h.032c.303-.708 1.34-1.94 3.08-1.94 1.888 0 2.56 1.068 2.56 2.932v3.968h1.311v.842h-2.348v-4.54c0-1.187-.183-2.24-1.661-2.24-1.646 0-2.912 1.353-2.912 3.158v2.78h1.296v.842h-3.63z"/></g><g><path fill="#dc6099" d="M190.963 86.443h-1.373V85.6h1.389V83.51h1.02v2.091h1.937v.842H192v3.878c0 1.774 1.144 2.015 1.738 2.015.215 0 .35-.031.35-.031v.888s-.183.029-.442.029c-.885 0-2.683-.285-2.683-2.811z"/></g><g><path fill="#dc6099" d="M198.03 92.287h1.403v-8.825h-1.403v-.872h4.878c.657 0 1.328.06 1.831.301 1.053.465 1.723 1.518 1.723 2.871 0 1.459-.763 2.585-1.953 3.006-.502.166-1.004.211-1.584.211H200.5v3.308h1.402v.871h-3.873zm4.788-4.21c.504 0 .93-.06 1.296-.21.792-.316 1.266-1.068 1.266-2.105 0-.962-.412-1.653-1.113-2.014-.382-.166-.885-.256-1.449-.256h-2.317v4.585z"/></g><g><path fill="#dc6099" d="M208.216 83.432h-1.356v-.842h2.393v8.6c0 .615.169 1.125.87 1.125.274 0 .426-.028.426-.028v.87s-.29.046-.594.046c-1.007 0-1.739-.496-1.739-1.939z"/></g><g><path fill="#dc6099" d="M216.01 88.533h.502v-.317c0-1.413-.779-1.908-1.845-1.908-1.296 0-2.226.736-2.226.736l-.487-.767s1.037-.857 2.774-.857c1.86 0 2.821.977 2.821 2.84v3.73c0 .226.12.33.336.33h.838v.843h-1.25c-.657 0-.916-.286-.916-.827v-.137c0-.358.047-.584.047-.584h-.03s-.657 1.728-2.622 1.728c-1.251 0-2.562-.706-2.562-2.255l1.184-.655c-.076.16-.118.342-.118.55l1.644 1.519c1.535 0 2.402-1.52 2.402-2.843v-.36h-.44c-.26 0-.93-.011-1.623.103zm-3.436 1.9l1.865-1.031c-.771.127-1.571.409-1.865 1.031z"/></g><g><path fill="#dc6099" d="M219.737 92.32h1.294v-5.548c0-.226-.122-.33-.335-.33h-1.036v-.841h1.464c.64 0 .93.27.93.841v.435c0 .301-.06.542-.06.542h.03c.213-.57 1.203-1.999 3.125-1.999 1.89 0 2.545 1.067 2.545 2.931v3.969h1.297v.841h-2.332v-4.539c0-1.188-.2-2.24-1.679-2.24-1.69 0-2.91 1.474-2.91 3.142v2.796h1.294v.841h-3.627z"/></g><g><path fill="#dc6099" d="M228.307 83.044a1.55 1.55 0 0 1 1.069-.424c.205 0 .398.038.582.112a1.483 1.483 0 0 1 .803.78c.08.18.12.372.12.58 0 .217-.04.414-.12.594a1.451 1.451 0 0 1-.803.781c-.184.076-.377.111-.582.111a1.522 1.522 0 0 1-1.069-.42 1.528 1.528 0 0 1-.327-.472c-.08-.18-.12-.377-.12-.594 0-.208.04-.4.12-.58.081-.18.19-.335.327-.468zm.181 1.958c.112.113.244.204.394.268.152.064.316.096.494.096a1.214 1.214 0 0 0 1.139-.766c.061-.156.093-.324.093-.508a1.236 1.236 0 0 0-.354-.893 1.215 1.215 0 0 0-.877-.363c-.179 0-.343.034-.495.098-.15.066-.282.153-.394.266-.11.112-.197.246-.26.398a1.293 1.293 0 0 0-.096.494c0 .184.033.352.096.508.063.154.15.288.26.402zm.98-1.77c.208 0 .364.042.464.123.1.084.15.21.15.377 0 .156-.045.272-.132.345a.595.595 0 0 1-.33.13l.502.77h-.293l-.477-.751h-.29v.752h-.273v-1.746zm-.12.774c.061 0 .119-.003.173-.007a.46.46 0 0 0 .147-.033.237.237 0 0 0 .104-.087.29.29 0 0 0 .037-.16.253.253 0 0 0-.035-.14.235.235 0 0 0-.089-.079.369.369 0 0 0-.124-.038 1.16 1.16 0 0 0-.137-.008h-.363v.552z"/></g><g><path fill="#fff" d="M181.716 53.563c0 6.543-4.714 9.818-10.113 9.818h-7.318a.442.442 0 0 1-.435-.428V42.218c0-.215.218-.428.468-.428h7.285c6.113 0 10.113 3.911 10.113 9.876zm-13.711-8.41a.312.312 0 0 0-.312.309v14.246c0 .185.126.308.28.308h3.626c3.845 0 6.234-2.448 6.234-6.454v-1.896c0-3.976-2.326-6.512-6.234-6.512z"/></g></g></g></g></svg>